<?xml version="1.0" encoding="UTF-8" standalone="no"?>
<!-- Created with Inkscape (http://www.inkscape.org/) -->

<svg
   xmlns:dc="http://purl.org/dc/elements/1.1/"
   xmlns:cc="http://creativecommons.org/ns#"
   xmlns:rdf="http://www.w3.org/1999/02/22-rdf-syntax-ns#"
   xmlns:svg="http://www.w3.org/2000/svg"
   xmlns="http://www.w3.org/2000/svg"
   xmlns:sodipodi="http://sodipodi.sourceforge.net/DTD/sodipodi-0.dtd"
   xmlns:inkscape="http://www.inkscape.org/namespaces/inkscape"
   width="250"
   height="140"
   viewBox="0 0 66.145834 37.041665"
   version="1.1"
   id="svg8"
   inkscape:version="0.92.4 5da689c313, 2019-01-14"
   sodipodi:docname="logo.svg">
  <title
     id="title1571">Free Software Foundation of India Logo</title>
  <defs
     id="defs2" />
  <sodipodi:namedview
     id="base"
     pagecolor="#ffffff"
     bordercolor="#666666"
     borderopacity="1.0"
     inkscape:pageopacity="0.0"
     inkscape:pageshadow="2"
     inkscape:zoom="1.8780139"
     inkscape:cx="48.359873"
     inkscape:cy="94.905877"
     inkscape:document-units="mm"
     inkscape:current-layer="layer1"
     showgrid="false"
     inkscape:window-width="1364"
     inkscape:window-height="766"
     inkscape:window-x="0"
     inkscape:window-y="0"
     inkscape:window-maximized="1"
     units="px"
     inkscape:pagecheckerboard="true" />
  <metadata
     id="metadata5">
    <rdf:RDF>
      <cc:Work
         rdf:about="">
        <dc:format>image/svg+xml</dc:format>
        <dc:type
           rdf:resource="http://purl.org/dc/dcmitype/StillImage" />
        <dc:title>Free Software Foundation of India Logo</dc:title>
      </cc:Work>
    </rdf:RDF>
  </metadata>
  <g
     inkscape:label="Layer 1"
     inkscape:groupmode="layer"
     id="layer1"
     transform="translate(0,-259.95835)">
    <text
       xml:space="preserve"
       style="font-style:normal;font-variant:normal;font-weight:normal;font-stretch:normal;font-size:3.52777766999999987px;line-height:1.25;font-family:'Noto Serif';-inkscape-font-specification:'Noto Serif';letter-spacing:0px;word-spacing:0px;fill:#000000;fill-opacity:1;stroke:none;stroke-width:0.10184412;"
       x="3.6558323"
       y="293.45041"
       id="text74"
       inkscape:export-xdpi="96"
       inkscape:export-ydpi="96"
       transform="scale(0.99483363,1.0051932)"><tspan
         sodipodi:role="line"
         id="tspan72"
         x="3.6558323"
         y="293.45041"
         style="font-style:normal;font-variant:normal;font-weight:normal;font-stretch:normal;font-size:3.52777766999999987px;font-family:'Noto Serif';-inkscape-font-specification:'Noto Serif';fill:#000000;stroke-width:0.10184412;">Free Software Foundation of India</tspan></text>
    <g
       style="stroke-width:2.88329101"
       transform="matrix(0.27310215,0,0,0.27256653,-43.08582,266.49227)"
       id="g1221">
      <path
         style="color:#000000;font-style:normal;font-variant:normal;font-weight:normal;font-stretch:normal;font-size:medium;line-height:normal;font-family:sans-serif;font-variant-ligatures:normal;font-variant-position:normal;font-variant-caps:normal;font-variant-numeric:normal;font-variant-alternates:normal;font-feature-settings:normal;text-indent:0;text-align:start;text-decoration:none;text-decoration-line:none;text-decoration-style:solid;text-decoration-color:#000000;letter-spacing:normal;word-spacing:normal;text-transform:none;writing-mode:lr-tb;direction:ltr;text-orientation:mixed;dominant-baseline:auto;baseline-shift:baseline;text-anchor:start;white-space:normal;shape-padding:0;clip-rule:nonzero;display:inline;overflow:visible;visibility:visible;opacity:1;isolation:auto;mix-blend-mode:normal;color-interpolation:sRGB;color-interpolation-filters:linearRGB;solid-color:#000000;solid-opacity:1;vector-effect:none;fill:#fd9903;fill-opacity:1;fill-rule:nonzero;stroke:none;stroke-width:11.53316307;stroke-linecap:round;stroke-linejoin:miter;stroke-miterlimit:4;stroke-dasharray:none;stroke-dashoffset:0;stroke-opacity:1;paint-order:fill markers stroke;color-rendering:auto;image-rendering:auto;shape-rendering:auto;text-rendering:auto;enable-background:accumulate"
         d="m 215.43636,19.878564 c -7.98523,0 -14.5,6.51477 -14.5,14.5 0,7.985229 6.51477,14.5 14.5,14.5 7.98523,0 14.5,-6.514771 14.5,-14.5 0,-7.98523 -6.51477,-14.5 -14.5,-14.5 z m 0,3.866667 c 5.89553,0 10.63333,4.737805 10.63333,10.633333 0,5.895528 -4.7378,10.633333 -10.63333,10.633333 -5.89553,0 -10.63333,-4.737805 -10.63333,-10.633333 0,-5.895528 4.7378,-10.633333 10.63333,-10.633333 z"
         id="path1213"
         inkscape:connector-curvature="0" />
      <path
         style="fill:#fd9903;fill-opacity:1;stroke:none;stroke-width:0.76287067px;stroke-linecap:butt;stroke-linejoin:miter;stroke-opacity:1"
         d="m 194.39256,-9.824719 c -0.16536,0 -0.1537,0.260006 -0.10645,0.3545 0,0 0.3074,-0.07117 0.37827,-0.212907 0.0709,-0.141741 -0.10645,-0.141593 -0.27182,-0.141593 z m -0.71468,0.08992 c -0.20756,0.02039 -1.3264,0.65165 -1.64796,0.856278 -0.3675,0.233861 -3.27091,1.72646 -3.80545,2.1941816 -0.53454,0.4677217 -3.17354,2.338542 -4.14239,3.0401244 -0.96885,0.7015826 -4.61067,4.10959817 -5.67975,5.2120849 -1.06908,1.1024868 -4.84441,6.1470426 -5.1785,6.648173 -0.33409,0.5011303 0.40114,0.1003569 0.23409,0.5012613 -0.16704,0.4009043 -0.43449,0.7684545 -0.70176,0.8686808 -0.26727,0.100225 -0.33373,0.066794 -0.601,0.567924 -0.26727,0.50113 -3.34081,6.781847 -4.37647,10.089306 -1.03567,3.307461 -1.80421,10.089266 -1.83762,13.897861 -0.0334,3.808587 0.70151,8.58623 1.0356,11.292332 0.33408,2.706106 3.30765,10.490192 4.04265,11.993584 0.73498,1.503389 5.47856,8.285496 6.78149,9.755476 1.30294,1.469985 7.85113,7.449965 9.55498,8.552449 1.70384,1.102487 8.01843,5.211935 9.88931,5.946926 1.87089,0.734991 7.0156,2.104885 9.02013,2.505789 2.00452,0.400905 5.44548,0.434081 6.74842,0.434081 1.30294,0 2.07142,-0.567822 2.30529,-0.835091 0.23386,-0.267266 0.41917,-0.611338 0.37362,-1.045414 -0.13038,-1.242224 -1.62843,-1.784178 -3.3135,-1.961636 -1.67043,-0.200454 -8.15188,-1.770695 -8.51937,-2.104782 -0.3675,-0.334087 -0.50075,-0.166915 -0.50075,-0.166915 0,0 0.26706,0.467646 -0.13384,0.367419 -0.40091,-0.100227 -6.11374,-1.736902 -7.71736,-3.2737 -1.60362,-1.536801 -3.77515,-3.608441 -5.1449,-4.443659 -1.36976,-0.835215 -8.78666,-6.815301 -10.52391,-8.953457 -1.73725,-2.138156 -5.07814,-7.750543 -6.01359,-10.155968 -0.93544,-2.40543 -3.00653,-8.753514 -3.67471,-12.862782 -0.66817,-4.10927 -0.0845,-9.193017 0.0491,-12.300024 0.13363,-3.107009 2.58439,-11.225007 3.45301,-13.296346 0.86863,-2.071339 2.94536,-5.0391784 3.47989,-5.8409868 0.53455,-0.8018087 2.97347,-4.0090577 2.97347,-4.0090577 0,0 -2.55856,3.1854637 -2.75901,3.0184204 -0.20045,-0.1670434 0.25332,-0.7799546 0.65423,-1.381311 0.4009,-0.6013564 0.80194,-1.2025892 1.16943,-1.5032672 0.3675,-0.3006783 0.56816,-0.4680863 0.80202,-0.7353557 0.23386,-0.2672694 1.8709,-2.40507373 2.00453,-2.60552583 0.13363,-0.2004521 0.2835,0.1426507 0.81804,-0.425297 0.53454,-0.5679477 1.11965,-1.51241677 1.75441,-2.24740797 0.63477,-0.7349912 3.14002,-2.2052954 4.40955,-3.2075561 1.26953,-1.0022607 2.06146,-1.8395791 2.36213,-2.1068481 0.30068,-0.267269 1.6814,-0.971905 1.74822,-1.138949 0.0668,-0.167043 0.86772,-0.663137 0.50022,-0.496093 -0.36749,0.167043 -3.10699,1.93784 -3.24062,1.837614 -0.13364,-0.100226 -0.23384,-0.200403 0.10025,-0.467672 0.33409,-0.26727 3.17606,-1.78289 3.27629,-1.983341 0.0125,-0.02506 0.002,-0.03444 -0.0279,-0.03152 z"
         id="path1215"
         inkscape:connector-curvature="0" />
      <path
         style="color:#000000;font-style:normal;font-variant:normal;font-weight:normal;font-stretch:normal;font-size:medium;line-height:normal;font-family:sans-serif;font-variant-ligatures:normal;font-variant-position:normal;font-variant-caps:normal;font-variant-numeric:normal;font-variant-alternates:normal;font-feature-settings:normal;text-indent:0;text-align:start;text-decoration:none;text-decoration-line:none;text-decoration-style:solid;text-decoration-color:#000000;letter-spacing:normal;word-spacing:normal;text-transform:none;writing-mode:lr-tb;direction:ltr;text-orientation:mixed;dominant-baseline:auto;baseline-shift:baseline;text-anchor:start;white-space:normal;shape-padding:0;clip-rule:nonzero;display:inline;overflow:visible;visibility:visible;opacity:1;isolation:auto;mix-blend-mode:normal;color-interpolation:sRGB;color-interpolation-filters:linearRGB;solid-color:#000000;solid-opacity:1;vector-effect:none;fill:#33cb33;fill-opacity:1;fill-rule:nonzero;stroke:none;stroke-width:7.20822763;stroke-linecap:round;stroke-linejoin:miter;stroke-miterlimit:4;stroke-dasharray:none;stroke-dashoffset:0;stroke-opacity:1;paint-order:fill markers stroke;color-rendering:auto;image-rendering:auto;shape-rendering:auto;text-rendering:auto;enable-background:accumulate"
         d="m 216.77148,-15.994141 a 2.1304997,2.1304997 0 1 0 0,4.259766 c 25.52203,10e-7 46.16993,20.6779062 46.16993,46.246094 0,25.568187 -20.6479,46.246093 -46.16993,46.246093 a 2.1308595,2.1308595 0 1 0 0,4.261719 c 27.82828,0 50.42969,-22.640703 50.42969,-50.507812 0,-27.86711 -22.60141,-50.505859 -50.42969,-50.50586 z"
         id="path1217"
         inkscape:connector-curvature="0" />
      <path
         style="fill:#000000;stroke:none;stroke-width:0.76287067px;stroke-linecap:butt;stroke-linejoin:miter;stroke-opacity:1"
         d="m 215.62497,-13.484654 c -0.49775,0.0028 -1.30623,0.05337 -1.32395,0.09767 -0.0236,0.05906 1.4e-4,0.531825 0.0238,0.709001 0.0236,0.177178 0.0473,0.105939 0.17725,0.188619 0.12993,0.08268 0.1416,0.248269 0.1416,0.449068 0,0.200802 -0.24805,0.141593 -0.24805,0.141593 0,0 -0.31296,-0.08898 -0.17932,0.84646 0.13363,0.935443 -0.6012,9.2873513 -0.73484,12.1604987 -0.13363,2.8731474 -0.73484,9.1539673 -0.73484,10.4903153 0,1.336347 -0.33403,1.403279 -0.46767,3.073714 -0.13363,1.670434 -0.10303,3.27563 0.0429,4.220931 0.0911,0.590256 1.14536,1.351274 2.73524,0.414962 0.42522,-0.543341 0.62632,-1.346392 0.709,-1.960604 0.0827,-0.614211 0.0942,-0.566965 0.0351,-1.07487 -0.0591,-0.507906 -0.20073,-0.73255 -0.15348,-1.523938 0.0472,-0.791387 0.94501,-2.055466 1.16944,-2.764172 0.22442,-0.708705 0.059,-0.283409 0.0708,-0.980302 0.0118,-0.696894 0.071,-3.6733081 0.0238,-4.6891192 -0.0472,-1.0158108 0.18862,-7.4414061 0.18862,-7.4414061 0,0 -0.24774,-7.7958325 -0.28318,-8.2801147 -0.0354,-0.4842827 -0.29522,-1.157405 -0.40153,-1.547193 -0.10631,-0.389787 -0.0122,-2.078869 -0.0594,-2.232421 -0.0472,-0.153553 -0.15333,-0.236454 -0.37775,-0.283704 -0.0561,-0.01181 -0.18755,-0.01591 -0.35347,-0.01499 z m -23.87813,5.7552043 c -0.0754,-0.00884 -0.16308,0.00492 -0.27182,0.041341 -0.21746,0.072839 -1.41406,0.8574611 -1.40456,0.9203573 0.01,0.06289 0.26873,0.4580845 0.37879,0.5989296 0.11005,0.1408502 0.0947,0.067841 0.24856,0.073381 0.15391,0.00555 0.2477,0.1420474 0.34933,0.3152262 0.10164,0.1731811 -0.14211,0.2480468 -0.14211,0.2480468 0,0 -0.31483,0.081489 0.27389,0.8206219 0.58872,0.7391347 4.18213,8.3142203 5.52111,10.8598022 1.33897,2.5455832 3.9993,8.2670467 4.67568,9.4195797 0.67638,1.152531 0.42216,1.379374 1.15238,2.887679 0.73023,1.508301 1.56921,2.876969 2.17352,3.618383 0.37733,0.462948 1.67155,0.585417 2.56883,-1.02681 0.0917,-0.683828 -0.14128,-1.477913 -0.38085,-2.049488 -0.23956,-0.571579 -0.20566,-0.537012 -0.51367,-0.945162 -0.30801,-0.408148 -0.54401,-0.530168 -0.90382,-1.236617 -0.35981,-0.706444 -0.225,-2.250715 -0.39015,-2.975529 -0.16516,-0.724812 -0.0926,-0.274076 -0.43512,-0.881083 -0.34253,-0.607024 -1.79793,-3.2044285 -2.35283,-4.056599 -0.55489,-0.8521716 -3.60391,-6.5132974 -3.60391,-6.5132974 0,0 -4.15971,-6.5977744 -4.43539,-6.9975056 -0.27568,-0.3997349 -0.84016,-0.8488302 -1.12913,-1.1311972 -0.28898,-0.2823633 -1.06234,-1.786976 -1.18081,-1.8954914 -0.0592,-0.054259 -0.12254,-0.085733 -0.19792,-0.094568 z M 173.62495,9.439528 c -0.10823,0.00852 -0.20667,0.06997 -0.31988,0.1994709 -0.15094,0.172666 -0.7877,1.4542841 -0.74775,1.5037841 0.04,0.04948 0.46382,0.260058 0.62993,0.326078 0.16611,0.06602 0.1155,0.01039 0.25115,-0.06253 0.13565,-0.07292 0.28579,-0.0021 0.46095,0.09612 0.1752,0.09818 0.003,0.285254 0.003,0.285254 0,0 -0.23074,0.22971 0.6506,0.570508 0.88135,0.340798 7.8075,5.065326 10.24847,6.586677 2.44097,1.521354 7.62599,5.116805 8.79171,5.770191 1.16573,0.653385 1.06075,0.977688 2.45257,1.910994 1.39181,0.9333 2.80666,1.691336 3.70261,2.026233 0.55945,0.209113 1.73906,-0.338654 1.69964,-2.183329 -0.26606,-0.636589 -0.86889,-1.204733 -1.36426,-1.577165 -0.49535,-0.372441 -0.4479,-0.359226 -0.91984,-0.556038 -0.47193,-0.196811 -0.73732,-0.183177 -1.40456,-0.611332 -0.66724,-0.42815 -1.33067,-1.829154 -1.83917,-2.371432 -0.50849,-0.54226 -0.21847,-0.190025 -0.82062,-0.541052 -0.60213,-0.351056 -3.1696,-1.858106 -4.07882,-2.313554 -0.90921,-0.45545 -6.39909,-3.802869 -6.39909,-3.802869 0,0 -6.92153,-3.59545 -7.36131,-3.801318 -0.43977,-0.205873 -1.15416,-0.308328 -1.54616,-0.406176 -0.39199,-0.09784 -1.81906,-1.00587 -1.9761,-1.0397301 -0.0393,-0.00847 -0.0766,-0.011625 -0.11266,-0.00878 z m 5.0829,22.688537 c 0,0 -7.7926,0.32708 -8.2765,0.367419 -0.4839,0.04034 -1.15489,0.306779 -1.54358,0.417028 -0.38869,0.11026 -2.07832,0.03285 -2.23139,0.08165 -0.15306,0.0488 -0.2346,0.155964 -0.27957,0.380854 -0.045,0.224891 0.0404,1.653334 0.0997,1.676384 0.0593,0.02301 0.53104,-0.0056 0.70797,-0.03101 0.1769,-0.02542 0.10623,-0.04803 0.18758,-0.1788 0.0814,-0.130765 0.24621,-0.144246 0.447,-0.146246 0.20082,-0.0021 0.1447,0.246499 0.1447,0.246499 0,0 -0.086,0.313642 0.84801,0.170532 0.93404,-0.143111 9.29286,0.507349 12.16721,0.611849 2.87436,0.104497 9.16127,0.641934 10.49755,0.628385 1.33628,-0.01355 1.40615,0.319971 3.07785,0.436666 1.6717,0.116686 3.27664,0.06972 4.22042,-0.08578 0.5893,-0.0971 1.33943,-1.159069 0.38705,-2.739369 -0.54762,-0.419693 -1.35282,-0.612397 -1.96783,-0.688846 -0.61503,-0.07646 -0.56811,-0.0885 -1.07539,-0.02429 -0.50728,0.06421 -0.73004,0.208211 -1.52187,0.168981 -0.79183,-0.03922 -2.0646,-0.924306 -2.77554,-1.141531 -0.71094,-0.217213 -0.28436,-0.05628 -0.98134,-0.06098 -0.69698,-0.0048 -3.67384,-0.03377 -4.68912,0.02377 -1.01528,0.05754 -7.44295,-0.11317 -7.44295,-0.11317 z m 21.95163,9.47384 c -0.618,-0.01237 -1.28827,0.193567 -1.78801,0.404109 -0.57114,0.240612 -0.53654,0.206454 -0.94413,0.515215 -0.40758,0.308761 -0.52876,0.544785 -1.23455,0.905888 -0.70578,0.361109 -2.2505,0.229354 -2.97501,0.395841 -0.72449,0.166491 -0.27419,0.093 -0.88057,0.436665 -0.60639,0.343636 -3.20079,1.80412 -4.05194,2.360581 -0.85115,0.556459 -6.5071,3.615799 -6.5071,3.615799 0,0 -6.59001,4.171378 -6.98924,4.447791 -0.39923,0.27641 -0.84729,0.842224 -1.12913,1.131713 -0.28183,0.289499 -1.78512,1.065757 -1.89342,1.184425 -0.1083,0.118666 -0.12544,0.252405 -0.0522,0.469739 0.0732,0.217334 0.86005,1.412613 0.92295,1.403014 0.0629,-0.0096 0.45776,-0.270031 0.59841,-0.380339 0.14062,-0.110296 0.0677,-0.09465 0.0729,-0.248562 0.005,-0.153922 0.14173,-0.247888 0.31471,-0.349851 0.17301,-0.101978 0.24805,0.141595 0.24805,0.141595 0,0 0.0821,0.314642 0.8201,-0.275437 0.73805,-0.590076 8.30687,-4.197612 10.84999,-5.541264 2.54311,-1.343647 8.2595,-4.014232 9.41079,-4.692735 1.15129,-0.678502 1.37814,-0.424555 2.8851,-1.157552 1.50695,-0.733001 2.87395,-1.574556 3.61425,-2.18023 0.46225,-0.378187 0.58292,-1.672971 -1.03095,-2.567284 -0.0855,-0.01131 -0.17268,-0.01735 -0.26096,-0.01912 z m 5.39036,5.639967 c -0.64223,0.252134 -1.22297,0.841983 -1.6061,1.329116 -0.38314,0.487132 -0.36967,0.44042 -0.57671,0.907954 -0.20704,0.467538 -0.19872,0.732854 -0.6413,1.390613 -0.44258,0.657762 -1.858,1.290413 -2.41122,1.786972 -0.55321,0.496557 -0.19457,0.214382 -0.55863,0.808736 -0.36409,0.594342 -1.92678,3.128582 -2.40192,4.027662 -0.47514,0.899078 -3.94136,6.314342 -3.94136,6.314342 0,0 -3.74508,6.841887 -3.96048,7.277076 -0.2154,0.435187 -0.3334,1.147083 -0.43977,1.536857 -0.10635,0.389776 -1.04586,1.797097 -1.08314,1.953368 -0.0373,0.156276 0.0126,0.28148 0.1819,0.43615 0.16934,0.15467 1.43639,0.819195 1.48674,0.780314 0.0503,-0.03888 0.26988,-0.458073 0.33951,-0.622699 0.0696,-0.1646 0.0136,-0.115502 -0.0563,-0.252699 -0.0699,-0.13721 0.003,-0.285384 0.10542,-0.458369 0.10198,-0.173038 0.28577,0.0036 0.28577,0.0036 0,0 0.22404,0.235508 0.58395,-0.638204 0.35991,-0.873713 5.23473,-7.695483 6.80888,-10.102744 1.57416,-2.407256 5.28175,-7.512333 5.96036,-8.663554 0.67862,-1.151218 1.00031,-1.039027 1.96371,-2.410187 0.96339,-1.371161 1.752,-2.769212 2.10633,-3.657659 0.22125,-0.554757 -0.30051,-1.7459 -2.14561,-1.746662 z m 9.44387,2.002462 c -0.4235,-0.01964 -0.94234,0.102581 -1.53169,0.465087 -0.4147,0.55141 -0.59989,1.358355 -0.67076,1.97404 -0.0709,0.615686 -0.0838,0.568709 -0.015,1.075386 0.0688,0.506677 0.21497,0.72817 0.18293,1.52032 -0.032,0.792151 -0.90544,2.072991 -1.11621,2.785877 -0.21076,0.712872 -0.0533,0.284863 -0.0517,0.981853 0.002,0.696994 -6e-4,3.673885 0.0661,4.688601 0.0667,1.014715 -0.046,7.443992 -0.046,7.443992 0,0 0.39762,7.789365 0.44235,8.272877 0.0447,0.483516 0.31772,1.151769 0.4315,1.539441 0.11378,0.387673 0.0516,2.07826 0.1018,2.230872 0.0502,0.152619 0.15815,0.233024 0.38344,0.275952 0.22529,0.04293 1.65286,-0.05521 1.67535,-0.11472 0.0225,-0.0595 -0.0102,-0.531273 -0.0372,-0.707967 -0.027,-0.176649 -0.0494,-0.105886 -0.18087,-0.186037 -0.1315,-0.08017 -0.14647,-0.245205 -0.15037,-0.445965 -0.004,-0.200811 0.24546,-0.146246 0.24546,-0.146246 0,0 0.31436,0.08314 0.16278,-0.849561 -0.15158,-0.932699 0.42284,-9.297713 0.50126,-12.1729 0.0784,-2.875185 0.55897,-9.166101 0.5333,-10.502201 -0.0257,-1.336101 0.30724,-1.409288 0.40876,-3.081983 0.10152,-1.672691 0.04,-3.277055 -0.12402,-4.21938 -0.064,-0.367749 -0.50546,-0.794617 -1.2113,-0.827338 z"
         id="path1219"
         inkscape:connector-curvature="0" />
    </g>
  </g>
</svg>
