<?xml version="1.0" encoding="UTF-8" standalone="no"?>
<svg
   xmlns:dc="http://purl.org/dc/elements/1.1/"
   xmlns:cc="http://creativecommons.org/ns#"
   xmlns:rdf="http://www.w3.org/1999/02/22-rdf-syntax-ns#"
   xmlns:svg="http://www.w3.org/2000/svg"
   xmlns="http://www.w3.org/2000/svg"
   xmlns:sodipodi="http://sodipodi.sourceforge.net/DTD/sodipodi-0.dtd"
   xmlns:inkscape="http://www.inkscape.org/namespaces/inkscape"
   version="1.1"
   id="Layer_1"
   x="0px"
   y="0px"
   width="128"
   height="128"
   viewBox="0 0 128 128"
   enable-background="new 0 0 793.322 340.809"
   xml:space="preserve"
   sodipodi:docname="matrix.svg"
   inkscape:version="1.0.1 (3bc2e813f5, 2020-09-07)"><title
   id="title1312">Matrix Icon</title><metadata
   id="metadata428"><rdf:RDF><cc:Work
       rdf:about=""><dc:format>image/svg+xml</dc:format><dc:type
         rdf:resource="http://purl.org/dc/dcmitype/StillImage" /><dc:title>Matrix Icon</dc:title><cc:license
         rdf:resource="http://creativecommons.org/publicdomain/zero/1.0/" /><dc:date>2021-02-08</dc:date><dc:creator><cc:Agent><dc:title>rsiddharth &lt;s@ricketyspace.net&gt;</dc:title></cc:Agent></dc:creator><dc:description>Matrix Icon.  This is  a derivative work of https://commons.wikimedia.org/wiki/File:Matrix_logo.svg -- which is also in the Public Domain.</dc:description></cc:Work><cc:License
       rdf:about="http://creativecommons.org/publicdomain/zero/1.0/"><cc:permits
         rdf:resource="http://creativecommons.org/ns#Reproduction" /><cc:permits
         rdf:resource="http://creativecommons.org/ns#Distribution" /><cc:permits
         rdf:resource="http://creativecommons.org/ns#DerivativeWorks" /></cc:License></rdf:RDF></metadata><defs
   id="defs426" /><sodipodi:namedview
   pagecolor="#ffffff"
   bordercolor="#666666"
   borderopacity="1"
   objecttolerance="10"
   gridtolerance="10"
   guidetolerance="10"
   inkscape:pageopacity="0"
   inkscape:pageshadow="2"
   inkscape:window-width="1976"
   inkscape:window-height="1224"
   id="namedview424"
   showgrid="false"
   inkscape:zoom="5.6568543"
   inkscape:cx="62.079105"
   inkscape:cy="71.126177"
   inkscape:window-x="218"
   inkscape:window-y="55"
   inkscape:window-maximized="0"
   inkscape:current-layer="Layer_1" />
























<g
   id="g1310"
   transform="matrix(0.99999845,0,0,0.99999655,2.4098948,-0.67360451)"
   style="fill:#ffffff"><path
     d="m 39.147348,41.28415 v 5.982634 h 0.170312 c 1.595712,-2.277329 3.517703,-4.045561 5.769283,-5.299177 2.250109,-1.25141 4.829439,-1.879689 7.73468,-1.879689 2.791209,0 5.34148,0.542571 7.648604,1.624037 2.30786,1.083303 4.060274,2.990948 5.256874,5.726244 1.309529,-1.936704 3.0899,-3.646448 5.341481,-5.12776 2.250108,-1.480577 4.913674,-2.222521 7.991066,-2.222521 2.336185,0 4.500218,0.285448 6.496148,0.85524 1.992982,0.569792 3.702355,1.481312 5.127024,2.734561 1.423184,1.254352 2.534081,2.892367 3.333404,4.913307 0.797118,2.024621 1.196601,4.459019 1.196601,7.308715 V 85.468973 H 83.07615 v -25.04069 c 0,-1.480576 -0.05665,-2.87655 -0.171049,-4.187917 -0.115132,-1.309529 -0.427067,-2.448376 -0.939844,-3.418385 -0.513144,-0.9678 -1.269065,-1.7377 -2.264822,-2.30786 -0.997229,-0.567586 -2.350898,-0.854137 -4.059907,-0.854137 -1.709009,0 -3.091003,0.32959 -4.145247,0.982515 -1.05498,0.656235 -1.880424,1.511475 -2.478173,2.564248 -0.598116,1.055348 -0.997228,2.251212 -1.196231,3.590905 -0.200477,1.33822 -0.299427,2.69189 -0.299427,4.059171 V 85.46934 H 55.385872 V 60.685775 c 0,-1.310265 -0.0298,-2.606919 -0.0846,-3.888123 -0.05813,-1.282677 -0.299426,-2.464562 -0.727597,-3.547866 -0.427436,-1.081467 -1.139952,-1.951052 -2.136813,-2.607287 -0.997228,-0.652925 -2.464195,-0.982515 -4.401267,-0.982515 -0.570527,0 -1.325346,0.128378 -2.264455,0.385502 -0.940211,0.256388 -1.852467,0.741576 -2.734928,1.45262 -0.8843,0.712884 -1.638382,1.738437 -2.265191,3.076288 -0.627176,1.339693 -0.940212,3.090636 -0.940212,5.255405 V 85.468973 H 27.695593 V 41.28415 Z"
     id="path409"
     style="fill:#ffffff;stroke-width:0.367846" /><text
     xml:space="preserve"
     style="font-size:93.29049999999999443px;line-height:1.25;font-family:'Noto Mono';-inkscape-font-specification:'Noto Mono';fill:#ffffff;stroke-width:2.33222"
     x="74.590874"
     y="91.301735"
     id="text1287"
     transform="scale(1.0108439,0.98927243)"><tspan
       sodipodi:role="line"
       id="tspan1285"
       x="74.590874"
       y="91.301735"
       style="fill:#ffffff;stroke-width:2.33222">]</tspan></text><text
     xml:space="preserve"
     style="font-size:93.28990000000000293px;line-height:1.25;font-family:'Noto Mono';-inkscape-font-specification:'Noto Mono';fill:#ffffff;stroke-width:2.33224"
     x="-8.7191"
     y="91.301514"
     id="text1291"
     transform="scale(1.0108394,0.98927684)"><tspan
       sodipodi:role="line"
       id="tspan1289"
       x="-8.7191"
       y="91.301514"
       style="fill:#ffffff;stroke-width:2.33224">[</tspan></text></g></svg>
